<svg xmlns="http://www.w3.org/2000/svg" width="754" height="460" viewBox="0 0 754 460">
<rect width="754" height="460" fill="#050505"/>
<text x="24" y="22" fill="#f0f0f0" font-family="ui-sans-serif,sans-serif" font-size="13">PXG 32 stamps</text>
<g transform="translate(34,46)"><rect x="24" y="0" width="7" height="7" fill="#f0f0f0"/><rect x="24" y="8" width="7" height="7" fill="#f0f0f0"/><rect x="24" y="16" width="7" height="7" fill="#f0f0f0"/><rect x="0" y="24" width="7" height="7" fill="#f0f0f0"/><rect x="8" y="24" width="7" height="7" fill="#f0f0f0"/><rect x="16" y="24" width="7" height="7" fill="#f0f0f0"/><rect x="24" y="24" width="7" height="7" fill="#00e5ff"/><rect x="32" y="24" width="7" height="7" fill="#f0f0f0"/><rect x="40" y="24" width="7" height="7" fill="#f0f0f0"/><rect x="48" y="24" width="7" height="7" fill="#f0f0f0"/><rect x="24" y="32" width="7" height="7" fill="#f0f0f0"/><rect x="24" y="40" width="7" height="7" fill="#f0f0f0"/><rect x="24" y="48" width="7" height="7" fill="#f0f0f0"/></g>
<text x="24" y="124" fill="#969696" font-family="ui-sans-serif,sans-serif" font-size="10">cross</text>
<g transform="translate(124,46)"><rect x="16" y="8" width="7" height="7" fill="#f0f0f0"/><rect x="24" y="8" width="7" height="7" fill="#f0f0f0"/><rect x="32" y="8" width="7" height="7" fill="#f0f0f0"/><rect x="16" y="16" width="7" height="7" fill="#f0f0f0"/><rect x="24" y="16" width="7" height="7" fill="#00e5ff"/><rect x="32" y="16" width="7" height="7" fill="#f0f0f0"/><rect x="8" y="24" width="7" height="7" fill="#f0f0f0"/><rect x="16" y="24" width="7" height="7" fill="#f0f0f0"/><rect x="24" y="24" width="7" height="7" fill="#f0f0f0"/><rect x="32" y="24" width="7" height="7" fill="#f0f0f0"/><rect x="40" y="24" width="7" height="7" fill="#f0f0f0"/><rect x="16" y="32" width="7" height="7" fill="#f0f0f0"/><rect x="24" y="32" width="7" height="7" fill="#f0f0f0"/><rect x="32" y="32" width="7" height="7" fill="#f0f0f0"/><rect x="16" y="40" width="7" height="7" fill="#f0f0f0"/><rect x="24" y="40" width="7" height="7" fill="#f0f0f0"/><rect x="32" y="40" width="7" height="7" fill="#f0f0f0"/></g>
<text x="114" y="124" fill="#969696" font-family="ui-sans-serif,sans-serif" font-size="10">plus</text>
<g transform="translate(214,46)"><rect x="24" y="0" width="7" height="7" fill="#f0f0f0"/><rect x="16" y="8" width="7" height="7" fill="#f0f0f0"/><rect x="32" y="8" width="7" height="7" fill="#f0f0f0"/><rect x="8" y="16" width="7" height="7" fill="#f0f0f0"/><rect x="40" y="16" width="7" height="7" fill="#f0f0f0"/><rect x="0" y="24" width="7" height="7" fill="#f0f0f0"/><rect x="24" y="24" width="7" height="7" fill="#00e5ff"/><rect x="48" y="24" width="7" height="7" fill="#f0f0f0"/><rect x="8" y="32" width="7" height="7" fill="#f0f0f0"/><rect x="40" y="32" width="7" height="7" fill="#f0f0f0"/><rect x="16" y="40" width="7" height="7" fill="#f0f0f0"/><rect x="32" y="40" width="7" height="7" fill="#f0f0f0"/><rect x="24" y="48" width="7" height="7" fill="#f0f0f0"/></g>
<text x="204" y="124" fill="#969696" font-family="ui-sans-serif,sans-serif" font-size="10">diamond</text>
<g transform="translate(304,46)"><rect x="8" y="0" width="7" height="7" fill="#f0f0f0"/><rect x="16" y="0" width="7" height="7" fill="#f0f0f0"/><rect x="24" y="0" width="7" height="7" fill="#f0f0f0"/><rect x="32" y="0" width="7" height="7" fill="#f0f0f0"/><rect x="40" y="0" width="7" height="7" fill="#f0f0f0"/><rect x="0" y="8" width="7" height="7" fill="#f0f0f0"/><rect x="48" y="8" width="7" height="7" fill="#f0f0f0"/><rect x="0" y="16" width="7" height="7" fill="#f0f0f0"/><rect x="48" y="16" width="7" height="7" fill="#f0f0f0"/><rect x="0" y="24" width="7" height="7" fill="#f0f0f0"/><rect x="24" y="24" width="7" height="7" fill="#00e5ff"/><rect x="48" y="24" width="7" height="7" fill="#f0f0f0"/><rect x="0" y="32" width="7" height="7" fill="#f0f0f0"/><rect x="48" y="32" width="7" height="7" fill="#f0f0f0"/><rect x="0" y="40" width="7" height="7" fill="#f0f0f0"/><rect x="48" y="40" width="7" height="7" fill="#f0f0f0"/><rect x="8" y="48" width="7" height="7" fill="#f0f0f0"/><rect x="16" y="48" width="7" height="7" fill="#f0f0f0"/><rect x="24" y="48" width="7" height="7" fill="#f0f0f0"/><rect x="32" y="48" width="7" height="7" fill="#f0f0f0"/><rect x="40" y="48" width="7" height="7" fill="#f0f0f0"/></g>
<text x="294" y="124" fill="#969696" font-family="ui-sans-serif,sans-serif" font-size="10">frame</text>
<g transform="translate(394,46)"><rect x="0" y="0" width="7" height="7" fill="#f0f0f0"/><rect x="8" y="0" width="7" height="7" fill="#f0f0f0"/><rect x="16" y="0" width="7" height="7" fill="#f0f0f0"/><rect x="32" y="0" width="7" height="7" fill="#f0f0f0"/><rect x="40" y="0" width="7" height="7" fill="#f0f0f0"/><rect x="48" y="0" width="7" height="7" fill="#f0f0f0"/><rect x="0" y="8" width="7" height="7" fill="#f0f0f0"/><rect x="48" y="8" width="7" height="7" fill="#f0f0f0"/><rect x="0" y="16" width="7" height="7" fill="#f0f0f0"/><rect x="48" y="16" width="7" height="7" fill="#f0f0f0"/><rect x="24" y="24" width="7" height="7" fill="#00e5ff"/><rect x="0" y="32" width="7" height="7" fill="#f0f0f0"/><rect x="48" y="32" width="7" height="7" fill="#f0f0f0"/><rect x="0" y="40" width="7" height="7" fill="#f0f0f0"/><rect x="48" y="40" width="7" height="7" fill="#f0f0f0"/><rect x="0" y="48" width="7" height="7" fill="#f0f0f0"/><rect x="8" y="48" width="7" height="7" fill="#f0f0f0"/><rect x="16" y="48" width="7" height="7" fill="#f0f0f0"/><rect x="32" y="48" width="7" height="7" fill="#f0f0f0"/><rect x="40" y="48" width="7" height="7" fill="#f0f0f0"/><rect x="48" y="48" width="7" height="7" fill="#f0f0f0"/></g>
<text x="384" y="124" fill="#969696" font-family="ui-sans-serif,sans-serif" font-size="10">window</text>
<g transform="translate(484,46)"><rect x="0" y="0" width="7" height="7" fill="#f0f0f0"/><rect x="8" y="0" width="7" height="7" fill="#f0f0f0"/><rect x="40" y="0" width="7" height="7" fill="#f0f0f0"/><rect x="48" y="0" width="7" height="7" fill="#f0f0f0"/><rect x="0" y="8" width="7" height="7" fill="#f0f0f0"/><rect x="48" y="8" width="7" height="7" fill="#f0f0f0"/><rect x="0" y="16" width="7" height="7" fill="#f0f0f0"/><rect x="48" y="16" width="7" height="7" fill="#f0f0f0"/><rect x="24" y="24" width="7" height="7" fill="#00e5ff"/><rect x="0" y="32" width="7" height="7" fill="#f0f0f0"/><rect x="48" y="32" width="7" height="7" fill="#f0f0f0"/><rect x="0" y="40" width="7" height="7" fill="#f0f0f0"/><rect x="48" y="40" width="7" height="7" fill="#f0f0f0"/><rect x="0" y="48" width="7" height="7" fill="#f0f0f0"/><rect x="8" y="48" width="7" height="7" fill="#f0f0f0"/><rect x="40" y="48" width="7" height="7" fill="#f0f0f0"/><rect x="48" y="48" width="7" height="7" fill="#f0f0f0"/></g>
<text x="474" y="124" fill="#969696" font-family="ui-sans-serif,sans-serif" font-size="10">gate</text>
<g transform="translate(574,46)"><rect x="16" y="0" width="7" height="7" fill="#f0f0f0"/><rect x="24" y="0" width="7" height="7" fill="#f0f0f0"/><rect x="32" y="0" width="7" height="7" fill="#f0f0f0"/><rect x="16" y="8" width="7" height="7" fill="#f0f0f0"/><rect x="24" y="8" width="7" height="7" fill="#00e5ff"/><rect x="32" y="8" width="7" height="7" fill="#f0f0f0"/><rect x="24" y="16" width="7" height="7" fill="#f0f0f0"/><rect x="16" y="24" width="7" height="7" fill="#f0f0f0"/><rect x="24" y="24" width="7" height="7" fill="#f0f0f0"/><rect x="32" y="24" width="7" height="7" fill="#f0f0f0"/><rect x="24" y="32" width="7" height="7" fill="#f0f0f0"/><rect x="16" y="40" width="7" height="7" fill="#f0f0f0"/><rect x="24" y="40" width="7" height="7" fill="#f0f0f0"/><rect x="32" y="40" width="7" height="7" fill="#f0f0f0"/><rect x="24" y="48" width="7" height="7" fill="#f0f0f0"/></g>
<text x="564" y="124" fill="#969696" font-family="ui-sans-serif,sans-serif" font-size="10">totem</text>
<g transform="translate(664,46)"><rect x="0" y="0" width="7" height="7" fill="#f0f0f0"/><rect x="48" y="0" width="7" height="7" fill="#f0f0f0"/><rect x="0" y="8" width="7" height="7" fill="#f0f0f0"/><rect x="8" y="8" width="7" height="7" fill="#f0f0f0"/><rect x="40" y="8" width="7" height="7" fill="#f0f0f0"/><rect x="48" y="8" width="7" height="7" fill="#f0f0f0"/><rect x="8" y="16" width="7" height="7" fill="#f0f0f0"/><rect x="16" y="16" width="7" height="7" fill="#f0f0f0"/><rect x="32" y="16" width="7" height="7" fill="#f0f0f0"/><rect x="40" y="16" width="7" height="7" fill="#f0f0f0"/><rect x="16" y="24" width="7" height="7" fill="#f0f0f0"/><rect x="24" y="24" width="7" height="7" fill="#00e5ff"/><rect x="32" y="24" width="7" height="7" fill="#f0f0f0"/><rect x="24" y="32" width="7" height="7" fill="#f0f0f0"/></g>
<text x="654" y="124" fill="#969696" font-family="ui-sans-serif,sans-serif" font-size="10">chevron</text>
<g transform="translate(34,152)"><rect x="16" y="0" width="7" height="7" fill="#f0f0f0"/><rect x="24" y="0" width="7" height="7" fill="#f0f0f0"/><rect x="32" y="0" width="7" height="7" fill="#f0f0f0"/><rect x="8" y="8" width="7" height="7" fill="#f0f0f0"/><rect x="40" y="8" width="7" height="7" fill="#f0f0f0"/><rect x="0" y="16" width="7" height="7" fill="#f0f0f0"/><rect x="48" y="16" width="7" height="7" fill="#f0f0f0"/><rect x="0" y="24" width="7" height="7" fill="#f0f0f0"/><rect x="24" y="24" width="7" height="7" fill="#00e5ff"/><rect x="48" y="24" width="7" height="7" fill="#f0f0f0"/><rect x="0" y="32" width="7" height="7" fill="#f0f0f0"/><rect x="48" y="32" width="7" height="7" fill="#f0f0f0"/><rect x="8" y="40" width="7" height="7" fill="#f0f0f0"/><rect x="40" y="40" width="7" height="7" fill="#f0f0f0"/><rect x="16" y="48" width="7" height="7" fill="#f0f0f0"/><rect x="24" y="48" width="7" height="7" fill="#f0f0f0"/><rect x="32" y="48" width="7" height="7" fill="#f0f0f0"/></g>
<text x="24" y="230" fill="#969696" font-family="ui-sans-serif,sans-serif" font-size="10">orbit</text>
<g transform="translate(124,152)"><rect x="0" y="0" width="7" height="7" fill="#f0f0f0"/><rect x="8" y="0" width="7" height="7" fill="#f0f0f0"/><rect x="40" y="0" width="7" height="7" fill="#f0f0f0"/><rect x="48" y="0" width="7" height="7" fill="#f0f0f0"/><rect x="0" y="8" width="7" height="7" fill="#f0f0f0"/><rect x="48" y="8" width="7" height="7" fill="#f0f0f0"/><rect x="0" y="16" width="7" height="7" fill="#f0f0f0"/><rect x="48" y="16" width="7" height="7" fill="#f0f0f0"/><rect x="0" y="24" width="7" height="7" fill="#f0f0f0"/><rect x="8" y="24" width="7" height="7" fill="#f0f0f0"/><rect x="16" y="24" width="7" height="7" fill="#f0f0f0"/><rect x="24" y="24" width="7" height="7" fill="#00e5ff"/><rect x="32" y="24" width="7" height="7" fill="#f0f0f0"/><rect x="40" y="24" width="7" height="7" fill="#f0f0f0"/><rect x="48" y="24" width="7" height="7" fill="#f0f0f0"/><rect x="0" y="32" width="7" height="7" fill="#f0f0f0"/><rect x="48" y="32" width="7" height="7" fill="#f0f0f0"/><rect x="0" y="40" width="7" height="7" fill="#f0f0f0"/><rect x="48" y="40" width="7" height="7" fill="#f0f0f0"/><rect x="0" y="48" width="7" height="7" fill="#f0f0f0"/><rect x="8" y="48" width="7" height="7" fill="#f0f0f0"/><rect x="40" y="48" width="7" height="7" fill="#f0f0f0"/><rect x="48" y="48" width="7" height="7" fill="#f0f0f0"/></g>
<text x="114" y="230" fill="#969696" font-family="ui-sans-serif,sans-serif" font-size="10">split</text>
<g transform="translate(214,152)"><rect x="8" y="0" width="7" height="7" fill="#f0f0f0"/><rect x="16" y="0" width="7" height="7" fill="#f0f0f0"/><rect x="24" y="0" width="7" height="7" fill="#f0f0f0"/><rect x="32" y="0" width="7" height="7" fill="#f0f0f0"/><rect x="40" y="0" width="7" height="7" fill="#f0f0f0"/><rect x="8" y="8" width="7" height="7" fill="#f0f0f0"/><rect x="40" y="8" width="7" height="7" fill="#f0f0f0"/><rect x="16" y="16" width="7" height="7" fill="#f0f0f0"/><rect x="32" y="16" width="7" height="7" fill="#f0f0f0"/><rect x="24" y="24" width="7" height="7" fill="#00e5ff"/><rect x="16" y="32" width="7" height="7" fill="#f0f0f0"/><rect x="32" y="32" width="7" height="7" fill="#f0f0f0"/><rect x="8" y="40" width="7" height="7" fill="#f0f0f0"/><rect x="40" y="40" width="7" height="7" fill="#f0f0f0"/><rect x="8" y="48" width="7" height="7" fill="#f0f0f0"/><rect x="16" y="48" width="7" height="7" fill="#f0f0f0"/><rect x="24" y="48" width="7" height="7" fill="#f0f0f0"/><rect x="32" y="48" width="7" height="7" fill="#f0f0f0"/><rect x="40" y="48" width="7" height="7" fill="#f0f0f0"/></g>
<text x="204" y="230" fill="#969696" font-family="ui-sans-serif,sans-serif" font-size="10">nest</text>
<g transform="translate(304,152)"><rect x="16" y="0" width="7" height="7" fill="#f0f0f0"/><rect x="24" y="0" width="7" height="7" fill="#f0f0f0"/><rect x="32" y="0" width="7" height="7" fill="#f0f0f0"/><rect x="16" y="8" width="7" height="7" fill="#f0f0f0"/><rect x="32" y="8" width="7" height="7" fill="#f0f0f0"/><rect x="16" y="16" width="7" height="7" fill="#f0f0f0"/><rect x="24" y="16" width="7" height="7" fill="#00e5ff"/><rect x="32" y="16" width="7" height="7" fill="#f0f0f0"/><rect x="16" y="24" width="7" height="7" fill="#f0f0f0"/><rect x="24" y="24" width="7" height="7" fill="#f0f0f0"/><rect x="32" y="24" width="7" height="7" fill="#f0f0f0"/><rect x="40" y="24" width="7" height="7" fill="#f0f0f0"/><rect x="16" y="32" width="7" height="7" fill="#f0f0f0"/><rect x="48" y="32" width="7" height="7" fill="#f0f0f0"/><rect x="16" y="40" width="7" height="7" fill="#f0f0f0"/><rect x="16" y="48" width="7" height="7" fill="#f0f0f0"/></g>
<text x="294" y="230" fill="#969696" font-family="ui-sans-serif,sans-serif" font-size="10">key</text>
<g transform="translate(394,152)"><rect x="0" y="0" width="7" height="7" fill="#f0f0f0"/><rect x="8" y="0" width="7" height="7" fill="#f0f0f0"/><rect x="0" y="8" width="7" height="7" fill="#f0f0f0"/><rect x="8" y="8" width="7" height="7" fill="#f0f0f0"/><rect x="0" y="16" width="7" height="7" fill="#f0f0f0"/><rect x="8" y="16" width="7" height="7" fill="#f0f0f0"/><rect x="0" y="24" width="7" height="7" fill="#f0f0f0"/><rect x="8" y="24" width="7" height="7" fill="#f0f0f0"/><rect x="16" y="24" width="7" height="7" fill="#f0f0f0"/><rect x="24" y="24" width="7" height="7" fill="#00e5ff"/><rect x="32" y="24" width="7" height="7" fill="#f0f0f0"/><rect x="0" y="32" width="7" height="7" fill="#f0f0f0"/><rect x="8" y="32" width="7" height="7" fill="#f0f0f0"/><rect x="40" y="32" width="7" height="7" fill="#f0f0f0"/><rect x="0" y="40" width="7" height="7" fill="#f0f0f0"/><rect x="8" y="40" width="7" height="7" fill="#f0f0f0"/><rect x="40" y="40" width="7" height="7" fill="#f0f0f0"/><rect x="0" y="48" width="7" height="7" fill="#f0f0f0"/><rect x="8" y="48" width="7" height="7" fill="#f0f0f0"/><rect x="16" y="48" width="7" height="7" fill="#f0f0f0"/><rect x="24" y="48" width="7" height="7" fill="#f0f0f0"/><rect x="32" y="48" width="7" height="7" fill="#f0f0f0"/><rect x="40" y="48" width="7" height="7" fill="#f0f0f0"/></g>
<text x="384" y="230" fill="#969696" font-family="ui-sans-serif,sans-serif" font-size="10">stem</text>
<g transform="translate(484,152)"><rect x="8" y="0" width="7" height="7" fill="#f0f0f0"/><rect x="16" y="0" width="7" height="7" fill="#f0f0f0"/><rect x="24" y="0" width="7" height="7" fill="#f0f0f0"/><rect x="32" y="0" width="7" height="7" fill="#f0f0f0"/><rect x="0" y="8" width="7" height="7" fill="#f0f0f0"/><rect x="8" y="8" width="7" height="7" fill="#f0f0f0"/><rect x="40" y="8" width="7" height="7" fill="#f0f0f0"/><rect x="0" y="16" width="7" height="7" fill="#f0f0f0"/><rect x="8" y="16" width="7" height="7" fill="#f0f0f0"/><rect x="0" y="24" width="7" height="7" fill="#f0f0f0"/><rect x="8" y="24" width="7" height="7" fill="#f0f0f0"/><rect x="24" y="24" width="7" height="7" fill="#00e5ff"/><rect x="40" y="24" width="7" height="7" fill="#f0f0f0"/><rect x="0" y="32" width="7" height="7" fill="#f0f0f0"/><rect x="8" y="32" width="7" height="7" fill="#f0f0f0"/><rect x="0" y="40" width="7" height="7" fill="#f0f0f0"/><rect x="8" y="40" width="7" height="7" fill="#f0f0f0"/><rect x="40" y="40" width="7" height="7" fill="#f0f0f0"/><rect x="8" y="48" width="7" height="7" fill="#f0f0f0"/><rect x="16" y="48" width="7" height="7" fill="#f0f0f0"/><rect x="24" y="48" width="7" height="7" fill="#f0f0f0"/><rect x="32" y="48" width="7" height="7" fill="#f0f0f0"/></g>
<text x="474" y="230" fill="#969696" font-family="ui-sans-serif,sans-serif" font-size="10">bowl</text>
<g transform="translate(574,152)"><rect x="8" y="0" width="7" height="7" fill="#f0f0f0"/><rect x="16" y="0" width="7" height="7" fill="#f0f0f0"/><rect x="24" y="0" width="7" height="7" fill="#f0f0f0"/><rect x="32" y="0" width="7" height="7" fill="#f0f0f0"/><rect x="40" y="0" width="7" height="7" fill="#f0f0f0"/><rect x="0" y="8" width="7" height="7" fill="#f0f0f0"/><rect x="8" y="8" width="7" height="7" fill="#f0f0f0"/><rect x="40" y="8" width="7" height="7" fill="#f0f0f0"/><rect x="48" y="8" width="7" height="7" fill="#f0f0f0"/><rect x="0" y="16" width="7" height="7" fill="#f0f0f0"/><rect x="8" y="16" width="7" height="7" fill="#f0f0f0"/><rect x="48" y="16" width="7" height="7" fill="#f0f0f0"/><rect x="0" y="24" width="7" height="7" fill="#f0f0f0"/><rect x="8" y="24" width="7" height="7" fill="#f0f0f0"/><rect x="24" y="24" width="7" height="7" fill="#00e5ff"/><rect x="0" y="32" width="7" height="7" fill="#f0f0f0"/><rect x="8" y="32" width="7" height="7" fill="#f0f0f0"/><rect x="0" y="40" width="7" height="7" fill="#f0f0f0"/><rect x="8" y="40" width="7" height="7" fill="#f0f0f0"/><rect x="0" y="48" width="7" height="7" fill="#f0f0f0"/><rect x="8" y="48" width="7" height="7" fill="#f0f0f0"/></g>
<text x="564" y="230" fill="#969696" font-family="ui-sans-serif,sans-serif" font-size="10">arch</text>
<g transform="translate(664,152)"><rect x="0" y="0" width="7" height="7" fill="#f0f0f0"/><rect x="8" y="0" width="7" height="7" fill="#f0f0f0"/><rect x="40" y="0" width="7" height="7" fill="#f0f0f0"/><rect x="48" y="0" width="7" height="7" fill="#f0f0f0"/><rect x="0" y="8" width="7" height="7" fill="#f0f0f0"/><rect x="48" y="8" width="7" height="7" fill="#f0f0f0"/><rect x="0" y="16" width="7" height="7" fill="#f0f0f0"/><rect x="48" y="16" width="7" height="7" fill="#f0f0f0"/><rect x="0" y="24" width="7" height="7" fill="#f0f0f0"/><rect x="8" y="24" width="7" height="7" fill="#f0f0f0"/><rect x="16" y="24" width="7" height="7" fill="#f0f0f0"/><rect x="24" y="24" width="7" height="7" fill="#00e5ff"/><rect x="32" y="24" width="7" height="7" fill="#f0f0f0"/><rect x="40" y="24" width="7" height="7" fill="#f0f0f0"/><rect x="48" y="24" width="7" height="7" fill="#f0f0f0"/><rect x="0" y="32" width="7" height="7" fill="#f0f0f0"/><rect x="0" y="40" width="7" height="7" fill="#f0f0f0"/><rect x="0" y="48" width="7" height="7" fill="#f0f0f0"/></g>
<text x="654" y="230" fill="#969696" font-family="ui-sans-serif,sans-serif" font-size="10">fork</text>
<g transform="translate(34,258)"><rect x="0" y="0" width="7" height="7" fill="#f0f0f0"/><rect x="8" y="0" width="7" height="7" fill="#f0f0f0"/><rect x="16" y="0" width="7" height="7" fill="#f0f0f0"/><rect x="24" y="0" width="7" height="7" fill="#f0f0f0"/><rect x="32" y="0" width="7" height="7" fill="#f0f0f0"/><rect x="40" y="0" width="7" height="7" fill="#f0f0f0"/><rect x="48" y="0" width="7" height="7" fill="#f0f0f0"/><rect x="16" y="8" width="7" height="7" fill="#f0f0f0"/><rect x="16" y="16" width="7" height="7" fill="#f0f0f0"/><rect x="16" y="24" width="7" height="7" fill="#f0f0f0"/><rect x="24" y="24" width="7" height="7" fill="#00e5ff"/><rect x="16" y="32" width="7" height="7" fill="#f0f0f0"/><rect x="16" y="40" width="7" height="7" fill="#f0f0f0"/><rect x="0" y="48" width="7" height="7" fill="#f0f0f0"/><rect x="8" y="48" width="7" height="7" fill="#f0f0f0"/><rect x="16" y="48" width="7" height="7" fill="#f0f0f0"/><rect x="24" y="48" width="7" height="7" fill="#f0f0f0"/><rect x="32" y="48" width="7" height="7" fill="#f0f0f0"/><rect x="40" y="48" width="7" height="7" fill="#f0f0f0"/><rect x="48" y="48" width="7" height="7" fill="#f0f0f0"/></g>
<text x="24" y="336" fill="#969696" font-family="ui-sans-serif,sans-serif" font-size="10">serif</text>
<g transform="translate(124,258)"><rect x="8" y="0" width="7" height="7" fill="#f0f0f0"/><rect x="16" y="0" width="7" height="7" fill="#f0f0f0"/><rect x="24" y="0" width="7" height="7" fill="#f0f0f0"/><rect x="32" y="0" width="7" height="7" fill="#f0f0f0"/><rect x="40" y="0" width="7" height="7" fill="#f0f0f0"/><rect x="0" y="8" width="7" height="7" fill="#f0f0f0"/><rect x="48" y="8" width="7" height="7" fill="#f0f0f0"/><rect x="0" y="16" width="7" height="7" fill="#f0f0f0"/><rect x="48" y="16" width="7" height="7" fill="#f0f0f0"/><rect x="0" y="24" width="7" height="7" fill="#f0f0f0"/><rect x="24" y="24" width="7" height="7" fill="#00e5ff"/><rect x="32" y="24" width="7" height="7" fill="#f0f0f0"/><rect x="48" y="24" width="7" height="7" fill="#f0f0f0"/><rect x="0" y="32" width="7" height="7" fill="#f0f0f0"/><rect x="48" y="32" width="7" height="7" fill="#f0f0f0"/><rect x="0" y="40" width="7" height="7" fill="#f0f0f0"/><rect x="48" y="40" width="7" height="7" fill="#f0f0f0"/><rect x="8" y="48" width="7" height="7" fill="#f0f0f0"/><rect x="16" y="48" width="7" height="7" fill="#f0f0f0"/><rect x="24" y="48" width="7" height="7" fill="#f0f0f0"/><rect x="32" y="48" width="7" height="7" fill="#f0f0f0"/><rect x="40" y="48" width="7" height="7" fill="#f0f0f0"/></g>
<text x="114" y="336" fill="#969696" font-family="ui-sans-serif,sans-serif" font-size="10">counter</text>
<g transform="translate(214,258)"><rect x="0" y="0" width="7" height="7" fill="#f0f0f0"/><rect x="32" y="0" width="7" height="7" fill="#f0f0f0"/><rect x="0" y="8" width="7" height="7" fill="#f0f0f0"/><rect x="32" y="8" width="7" height="7" fill="#f0f0f0"/><rect x="0" y="16" width="7" height="7" fill="#f0f0f0"/><rect x="32" y="16" width="7" height="7" fill="#f0f0f0"/><rect x="0" y="24" width="7" height="7" fill="#f0f0f0"/><rect x="8" y="24" width="7" height="7" fill="#f0f0f0"/><rect x="16" y="24" width="7" height="7" fill="#f0f0f0"/><rect x="24" y="24" width="7" height="7" fill="#00e5ff"/><rect x="32" y="24" width="7" height="7" fill="#f0f0f0"/><rect x="40" y="24" width="7" height="7" fill="#f0f0f0"/><rect x="48" y="24" width="7" height="7" fill="#f0f0f0"/><rect x="0" y="32" width="7" height="7" fill="#f0f0f0"/><rect x="32" y="32" width="7" height="7" fill="#f0f0f0"/><rect x="0" y="40" width="7" height="7" fill="#f0f0f0"/><rect x="32" y="40" width="7" height="7" fill="#f0f0f0"/><rect x="0" y="48" width="7" height="7" fill="#f0f0f0"/><rect x="32" y="48" width="7" height="7" fill="#f0f0f0"/></g>
<text x="204" y="336" fill="#969696" font-family="ui-sans-serif,sans-serif" font-size="10">ligature</text>
<g transform="translate(304,258)"><rect x="0" y="0" width="7" height="7" fill="#f0f0f0"/><rect x="8" y="0" width="7" height="7" fill="#f0f0f0"/><rect x="16" y="0" width="7" height="7" fill="#f0f0f0"/><rect x="24" y="0" width="7" height="7" fill="#f0f0f0"/><rect x="32" y="0" width="7" height="7" fill="#f0f0f0"/><rect x="40" y="0" width="7" height="7" fill="#f0f0f0"/><rect x="0" y="8" width="7" height="7" fill="#f0f0f0"/><rect x="40" y="8" width="7" height="7" fill="#f0f0f0"/><rect x="0" y="16" width="7" height="7" fill="#f0f0f0"/><rect x="24" y="16" width="7" height="7" fill="#00e5ff"/><rect x="40" y="16" width="7" height="7" fill="#f0f0f0"/><rect x="0" y="24" width="7" height="7" fill="#f0f0f0"/><rect x="8" y="24" width="7" height="7" fill="#f0f0f0"/><rect x="16" y="24" width="7" height="7" fill="#f0f0f0"/><rect x="24" y="24" width="7" height="7" fill="#f0f0f0"/><rect x="32" y="24" width="7" height="7" fill="#f0f0f0"/><rect x="40" y="24" width="7" height="7" fill="#f0f0f0"/><rect x="0" y="32" width="7" height="7" fill="#f0f0f0"/><rect x="0" y="40" width="7" height="7" fill="#f0f0f0"/><rect x="0" y="48" width="7" height="7" fill="#f0f0f0"/></g>
<text x="294" y="336" fill="#969696" font-family="ui-sans-serif,sans-serif" font-size="10">flag</text>
<g transform="translate(394,258)"><rect x="24" y="0" width="7" height="7" fill="#f0f0f0"/><rect x="24" y="8" width="7" height="7" fill="#f0f0f0"/><rect x="24" y="16" width="7" height="7" fill="#f0f0f0"/><rect x="0" y="24" width="7" height="7" fill="#f0f0f0"/><rect x="8" y="24" width="7" height="7" fill="#f0f0f0"/><rect x="16" y="24" width="7" height="7" fill="#f0f0f0"/><rect x="24" y="24" width="7" height="7" fill="#f0f0f0"/><rect x="32" y="24" width="7" height="7" fill="#00e5ff"/><rect x="40" y="24" width="7" height="7" fill="#f0f0f0"/><rect x="48" y="24" width="7" height="7" fill="#f0f0f0"/><rect x="24" y="32" width="7" height="7" fill="#f0f0f0"/><rect x="24" y="40" width="7" height="7" fill="#f0f0f0"/><rect x="24" y="48" width="7" height="7" fill="#f0f0f0"/></g>
<text x="384" y="336" fill="#969696" font-family="ui-sans-serif,sans-serif" font-size="10">cross_b</text>
<g transform="translate(484,258)"><rect x="16" y="8" width="7" height="7" fill="#f0f0f0"/><rect x="24" y="8" width="7" height="7" fill="#f0f0f0"/><rect x="32" y="8" width="7" height="7" fill="#f0f0f0"/><rect x="16" y="16" width="7" height="7" fill="#f0f0f0"/><rect x="24" y="16" width="7" height="7" fill="#f0f0f0"/><rect x="32" y="16" width="7" height="7" fill="#f0f0f0"/><rect x="8" y="24" width="7" height="7" fill="#f0f0f0"/><rect x="16" y="24" width="7" height="7" fill="#f0f0f0"/><rect x="24" y="24" width="7" height="7" fill="#00e5ff"/><rect x="32" y="24" width="7" height="7" fill="#f0f0f0"/><rect x="40" y="24" width="7" height="7" fill="#f0f0f0"/><rect x="16" y="32" width="7" height="7" fill="#f0f0f0"/><rect x="24" y="32" width="7" height="7" fill="#f0f0f0"/><rect x="32" y="32" width="7" height="7" fill="#f0f0f0"/><rect x="16" y="40" width="7" height="7" fill="#f0f0f0"/><rect x="24" y="40" width="7" height="7" fill="#f0f0f0"/><rect x="32" y="40" width="7" height="7" fill="#f0f0f0"/></g>
<text x="474" y="336" fill="#969696" font-family="ui-sans-serif,sans-serif" font-size="10">plus_b</text>
<g transform="translate(574,258)"><rect x="24" y="0" width="7" height="7" fill="#00e5ff"/><rect x="16" y="8" width="7" height="7" fill="#f0f0f0"/><rect x="32" y="8" width="7" height="7" fill="#f0f0f0"/><rect x="8" y="16" width="7" height="7" fill="#f0f0f0"/><rect x="40" y="16" width="7" height="7" fill="#f0f0f0"/><rect x="0" y="24" width="7" height="7" fill="#f0f0f0"/><rect x="48" y="24" width="7" height="7" fill="#f0f0f0"/><rect x="8" y="32" width="7" height="7" fill="#f0f0f0"/><rect x="40" y="32" width="7" height="7" fill="#f0f0f0"/><rect x="16" y="40" width="7" height="7" fill="#f0f0f0"/><rect x="32" y="40" width="7" height="7" fill="#f0f0f0"/><rect x="24" y="48" width="7" height="7" fill="#f0f0f0"/></g>
<text x="564" y="336" fill="#969696" font-family="ui-sans-serif,sans-serif" font-size="10">diamond_b</text>
<g transform="translate(664,258)"><rect x="0" y="0" width="7" height="7" fill="#00e5ff"/><rect x="8" y="0" width="7" height="7" fill="#f0f0f0"/><rect x="16" y="0" width="7" height="7" fill="#f0f0f0"/><rect x="24" y="0" width="7" height="7" fill="#f0f0f0"/><rect x="32" y="0" width="7" height="7" fill="#f0f0f0"/><rect x="40" y="0" width="7" height="7" fill="#f0f0f0"/><rect x="0" y="8" width="7" height="7" fill="#f0f0f0"/><rect x="48" y="8" width="7" height="7" fill="#f0f0f0"/><rect x="0" y="16" width="7" height="7" fill="#f0f0f0"/><rect x="48" y="16" width="7" height="7" fill="#f0f0f0"/><rect x="0" y="24" width="7" height="7" fill="#f0f0f0"/><rect x="48" y="24" width="7" height="7" fill="#f0f0f0"/><rect x="0" y="32" width="7" height="7" fill="#f0f0f0"/><rect x="48" y="32" width="7" height="7" fill="#f0f0f0"/><rect x="0" y="40" width="7" height="7" fill="#f0f0f0"/><rect x="48" y="40" width="7" height="7" fill="#f0f0f0"/><rect x="8" y="48" width="7" height="7" fill="#f0f0f0"/><rect x="16" y="48" width="7" height="7" fill="#f0f0f0"/><rect x="24" y="48" width="7" height="7" fill="#f0f0f0"/><rect x="32" y="48" width="7" height="7" fill="#f0f0f0"/><rect x="40" y="48" width="7" height="7" fill="#f0f0f0"/></g>
<text x="654" y="336" fill="#969696" font-family="ui-sans-serif,sans-serif" font-size="10">frame_b</text>
<g transform="translate(34,364)"><rect x="0" y="0" width="7" height="7" fill="#f0f0f0"/><rect x="8" y="0" width="7" height="7" fill="#f0f0f0"/><rect x="16" y="0" width="7" height="7" fill="#f0f0f0"/><rect x="32" y="0" width="7" height="7" fill="#f0f0f0"/><rect x="40" y="0" width="7" height="7" fill="#f0f0f0"/><rect x="48" y="0" width="7" height="7" fill="#f0f0f0"/><rect x="0" y="8" width="7" height="7" fill="#f0f0f0"/><rect x="48" y="8" width="7" height="7" fill="#f0f0f0"/><rect x="0" y="16" width="7" height="7" fill="#f0f0f0"/><rect x="48" y="16" width="7" height="7" fill="#f0f0f0"/><rect x="0" y="24" width="7" height="7" fill="#00e5ff"/><rect x="0" y="32" width="7" height="7" fill="#f0f0f0"/><rect x="48" y="32" width="7" height="7" fill="#f0f0f0"/><rect x="0" y="40" width="7" height="7" fill="#f0f0f0"/><rect x="48" y="40" width="7" height="7" fill="#f0f0f0"/><rect x="0" y="48" width="7" height="7" fill="#f0f0f0"/><rect x="8" y="48" width="7" height="7" fill="#f0f0f0"/><rect x="16" y="48" width="7" height="7" fill="#f0f0f0"/><rect x="32" y="48" width="7" height="7" fill="#f0f0f0"/><rect x="40" y="48" width="7" height="7" fill="#f0f0f0"/><rect x="48" y="48" width="7" height="7" fill="#f0f0f0"/></g>
<text x="24" y="442" fill="#969696" font-family="ui-sans-serif,sans-serif" font-size="10">window_b</text>
<g transform="translate(124,364)"><rect x="24" y="0" width="7" height="7" fill="#f0f0f0"/><rect x="16" y="8" width="7" height="7" fill="#f0f0f0"/><rect x="24" y="8" width="7" height="7" fill="#f0f0f0"/><rect x="32" y="8" width="7" height="7" fill="#f0f0f0"/><rect x="24" y="16" width="7" height="7" fill="#f0f0f0"/><rect x="16" y="24" width="7" height="7" fill="#f0f0f0"/><rect x="24" y="24" width="7" height="7" fill="#f0f0f0"/><rect x="32" y="24" width="7" height="7" fill="#f0f0f0"/><rect x="16" y="32" width="7" height="7" fill="#f0f0f0"/><rect x="24" y="32" width="7" height="7" fill="#00e5ff"/><rect x="32" y="32" width="7" height="7" fill="#f0f0f0"/><rect x="16" y="40" width="7" height="7" fill="#f0f0f0"/><rect x="24" y="40" width="7" height="7" fill="#f0f0f0"/><rect x="32" y="40" width="7" height="7" fill="#f0f0f0"/><rect x="24" y="48" width="7" height="7" fill="#f0f0f0"/></g>
<text x="114" y="442" fill="#969696" font-family="ui-sans-serif,sans-serif" font-size="10">totem_b</text>
<g transform="translate(214,364)"><rect x="16" y="0" width="7" height="7" fill="#f0f0f0"/><rect x="24" y="0" width="7" height="7" fill="#00e5ff"/><rect x="32" y="0" width="7" height="7" fill="#f0f0f0"/><rect x="8" y="8" width="7" height="7" fill="#f0f0f0"/><rect x="40" y="8" width="7" height="7" fill="#f0f0f0"/><rect x="0" y="16" width="7" height="7" fill="#f0f0f0"/><rect x="48" y="16" width="7" height="7" fill="#f0f0f0"/><rect x="0" y="24" width="7" height="7" fill="#f0f0f0"/><rect x="48" y="24" width="7" height="7" fill="#f0f0f0"/><rect x="0" y="32" width="7" height="7" fill="#f0f0f0"/><rect x="48" y="32" width="7" height="7" fill="#f0f0f0"/><rect x="8" y="40" width="7" height="7" fill="#f0f0f0"/><rect x="40" y="40" width="7" height="7" fill="#f0f0f0"/><rect x="16" y="48" width="7" height="7" fill="#f0f0f0"/><rect x="24" y="48" width="7" height="7" fill="#f0f0f0"/><rect x="32" y="48" width="7" height="7" fill="#f0f0f0"/></g>
<text x="204" y="442" fill="#969696" font-family="ui-sans-serif,sans-serif" font-size="10">orbit_b</text>
<g transform="translate(304,364)"><rect x="8" y="0" width="7" height="7" fill="#f0f0f0"/><rect x="16" y="0" width="7" height="7" fill="#f0f0f0"/><rect x="24" y="0" width="7" height="7" fill="#f0f0f0"/><rect x="32" y="0" width="7" height="7" fill="#f0f0f0"/><rect x="40" y="0" width="7" height="7" fill="#f0f0f0"/><rect x="8" y="8" width="7" height="7" fill="#f0f0f0"/><rect x="40" y="8" width="7" height="7" fill="#f0f0f0"/><rect x="16" y="16" width="7" height="7" fill="#f0f0f0"/><rect x="24" y="16" width="7" height="7" fill="#00e5ff"/><rect x="32" y="16" width="7" height="7" fill="#f0f0f0"/><rect x="16" y="32" width="7" height="7" fill="#f0f0f0"/><rect x="32" y="32" width="7" height="7" fill="#f0f0f0"/><rect x="8" y="40" width="7" height="7" fill="#f0f0f0"/><rect x="40" y="40" width="7" height="7" fill="#f0f0f0"/><rect x="8" y="48" width="7" height="7" fill="#f0f0f0"/><rect x="16" y="48" width="7" height="7" fill="#f0f0f0"/><rect x="24" y="48" width="7" height="7" fill="#f0f0f0"/><rect x="32" y="48" width="7" height="7" fill="#f0f0f0"/><rect x="40" y="48" width="7" height="7" fill="#f0f0f0"/></g>
<text x="294" y="442" fill="#969696" font-family="ui-sans-serif,sans-serif" font-size="10">nest_b</text>
<g transform="translate(394,364)"><rect x="24" y="24" width="7" height="7" fill="#00e5ff"/></g>
<text x="384" y="442" fill="#969696" font-family="ui-sans-serif,sans-serif" font-size="10">speck</text>
<g transform="translate(484,364)"><rect x="48" y="0" width="7" height="7" fill="#00e5ff"/></g>
<text x="474" y="442" fill="#969696" font-family="ui-sans-serif,sans-serif" font-size="10">speck_ne</text>
<g transform="translate(574,364)"><rect x="24" y="8" width="7" height="7" fill="#00e5ff"/><rect x="16" y="32" width="7" height="7" fill="#00e5ff"/></g>
<text x="564" y="442" fill="#969696" font-family="ui-sans-serif,sans-serif" font-size="10">spark</text>
<g transform="translate(664,364)"><rect x="0" y="0" width="7" height="7" fill="#00e5ff"/><rect x="32" y="24" width="7" height="7" fill="#00e5ff"/><rect x="48" y="48" width="7" height="7" fill="#00e5ff"/></g>
<text x="654" y="442" fill="#969696" font-family="ui-sans-serif,sans-serif" font-size="10">dust</text>
</svg>